<svg width="256" height="256" viewBox="0 0 256 256" fill="none" xmlns="http://www.w3.org/2000/svg">
<path d="M153.648 245.76H222.763C226.023 245.76 227.652 245.76 228.931 244.921C230.21 244.081 230.859 242.586 232.157 239.596L254.307 188.555C255.142 186.63 255.56 185.668 255.576 184.647C255.592 183.626 255.205 182.651 254.432 180.701L237.822 138.844C236.276 134.947 235.503 132.998 233.825 132.117C232.147 131.235 230.104 131.703 226.017 132.64L122.063 156.463C116.539 157.729 113.778 158.362 112.691 160.49C111.604 162.618 112.71 165.226 114.923 170.443L114.923 170.443L144.221 239.518C145.505 242.545 146.147 244.058 147.432 244.909C148.717 245.76 150.361 245.76 153.648 245.76Z" fill="#231F1C"/>
<path d="M1.01996 216.452V238.08C1.01996 241.7 1.01996 243.51 2.14467 244.635C3.26938 245.76 5.07957 245.76 8.69995 245.76H110.851C116.069 245.76 118.678 245.76 119.817 244.047C120.957 242.335 119.95 239.928 117.935 235.115L117.935 235.115L95.806 182.24C94.8494 179.954 94.3711 178.811 93.4046 178.168C92.438 177.525 91.1992 177.525 88.7214 177.525H33.2434C31.4419 177.525 30.5411 177.525 29.7565 177.899C28.9718 178.274 28.4053 178.974 27.2723 180.375L3.29855 210.012C2.17045 211.407 1.6064 212.104 1.31318 212.933C1.01996 213.762 1.01996 214.659 1.01996 216.452Z" fill="#F46A13"/>
<path d="M126.452 119.296L107.481 23.7544C106.357 18.0931 105.795 15.2625 107.331 13.3913C108.867 11.52 111.753 11.52 117.525 11.52H207.687C210.368 11.52 211.708 11.52 212.84 12.125C213.971 12.73 214.715 13.8448 216.204 16.0742L239.018 50.2454C240.347 52.2355 241.011 53.2305 241.178 54.3735C241.344 55.5166 240.992 56.6599 240.288 58.9466L240.287 58.9467L227.138 101.62C226.291 104.369 225.867 105.744 224.866 106.676C223.864 107.609 222.462 107.933 219.659 108.581L138.803 127.278C133.964 128.397 131.545 128.957 129.724 127.78C127.903 126.603 127.42 124.167 126.452 119.296Z" fill="#D6E348"/>
<path d="M1.01996 107.535V21.76C1.01996 16.9328 1.01996 14.5192 2.51957 13.0196C4.01918 11.52 6.43278 11.52 11.26 11.52H74.0423C78.1394 11.52 80.188 11.52 81.6143 12.7138C83.0406 13.9077 83.4012 15.9242 84.1224 19.9573L101.853 119.101C102.416 122.25 102.697 123.824 102.119 125.213C101.54 126.601 100.225 127.51 97.5933 129.329L59.3391 155.76C56.0746 158.015 54.4424 159.143 52.6363 159.007C50.8302 158.87 49.3859 157.51 46.4975 154.79L4.23926 114.99C2.65253 113.495 1.85917 112.748 1.43957 111.777C1.01996 110.805 1.01996 109.715 1.01996 107.535Z" fill="#EAD0B6"/>
</svg>
