<svg width="841" height="200" viewBox="0 0 841 200" fill="none" xmlns="http://www.w3.org/2000/svg">
<path d="M840.758 142.614V159.559C835.744 161.979 830.384 163.363 823.121 163.363C802.2 163.363 793.727 152.297 793.727 130.856V82.0965H771.595V64.8059H793.9V40.0803L813.439 28.3226V64.8059H840.758V82.0965H813.439V128.435C813.439 140.885 818.453 145.38 827.963 145.38C833.15 145.38 836.262 144.516 840.758 142.614Z" fill="#231F1C"/>
<path d="M753.92 24V161.634H732.998V24H753.92Z" fill="#231F1C"/>
<path d="M613.304 139.156C613.304 128.09 618.145 121.692 625.58 117.024C632.496 112.701 641.487 110.28 658.086 106.822C675.377 103.191 681.256 100.252 681.256 92.9897C681.256 85.7276 675.896 79.503 661.372 79.503C647.193 79.503 638.894 86.5921 634.398 99.2143L615.551 93.1626C623.678 73.1054 640.796 62.9039 662.236 62.9039C686.443 62.9039 701.313 74.8345 701.313 97.4852V134.141C701.313 143.997 704.425 146.936 710.996 146.936C713.589 146.936 715.837 146.418 717.912 145.553V159.559C714.627 161.461 709.44 163.19 703.388 163.19C687.826 163.19 681.429 155.928 681.429 139.156V138.291C675.377 154.026 661.026 163.363 643.735 163.363C624.197 163.363 613.304 154.026 613.304 139.156ZM681.947 116.332V109.243C679.008 113.22 672.783 115.64 659.988 118.407C642.698 122.211 634.398 125.669 634.398 135.698C634.398 143.305 640.277 147.628 651.689 147.628C668.634 147.628 681.602 132.585 681.947 116.332Z" fill="#231F1C"/>
<path d="M512.754 144.343L527.97 129.992C535.924 140.539 545.78 146.072 560.131 146.072C573.79 146.072 579.496 139.501 579.496 132.585C579.496 122.557 564.626 121.692 546.817 118.753C529.18 115.986 516.385 110.107 516.385 92.8167C516.385 75.8719 530.564 62.5581 554.771 62.5581C574.482 62.5581 588.315 68.6098 599.899 82.4423L583.819 96.102C576.384 85.3818 567.047 80.1946 553.56 80.1946C540.074 80.1946 534.713 86.2463 534.713 92.9896C534.713 101.808 545.952 103.537 562.379 105.958C581.225 108.724 598.17 113.22 598.17 132.585C598.17 150.395 583.819 163.535 559.612 163.535C537.653 163.535 522.264 156.273 512.754 144.343Z" fill="#231F1C"/>
<path d="M401.054 139.156C401.054 128.09 405.895 121.692 413.33 117.024C420.247 112.701 429.238 110.28 445.837 106.822C463.128 103.191 469.006 100.252 469.006 92.9897C469.006 85.7276 463.646 79.503 449.122 79.503C434.944 79.503 426.644 86.5921 422.149 99.2143L403.302 93.1626C411.428 73.1054 428.546 62.9039 449.987 62.9039C474.194 62.9039 489.064 74.8345 489.064 97.4852V134.141C489.064 143.997 492.176 146.936 498.746 146.936C501.34 146.936 503.588 146.418 505.663 145.553V159.559C502.377 161.461 497.19 163.19 491.138 163.19C475.577 163.19 469.179 155.928 469.179 139.156V138.291C463.128 154.026 448.776 163.363 431.486 163.363C411.947 163.363 401.054 154.026 401.054 139.156ZM469.698 116.332V109.243C466.759 113.22 460.534 115.64 447.739 118.407C430.448 122.211 422.149 125.669 422.149 135.698C422.149 143.305 428.028 147.628 439.439 147.628C456.384 147.628 469.352 132.585 469.698 116.332Z" fill="#231F1C"/>
<path d="M280.811 161.634V35.4119H339.081C369.166 35.4119 381.789 47.8611 381.789 67.2267C381.789 82.6153 372.279 93.3355 355.161 96.4478C373.662 98.8685 385.247 109.07 385.247 127.398C385.247 150.222 368.475 161.634 338.216 161.634H280.811ZM334.412 53.74H301.906V90.2232H333.548C352.913 90.2232 361.558 82.6153 361.558 71.2035C361.558 60.6562 354.642 53.74 334.412 53.74ZM335.795 105.439H301.906V143.133H335.968C358.446 143.133 364.671 134.314 364.671 123.075C364.671 111.318 356.025 105.439 335.795 105.439Z" fill="#231F1C"/>
<path d="M120.038 192H174.034C176.58 192 177.853 192 178.853 191.344C179.852 190.689 180.359 189.521 181.373 187.185L198.677 147.308C199.33 145.805 199.656 145.053 199.669 144.256C199.682 143.458 199.379 142.696 198.775 141.173L185.799 108.472C184.591 105.427 183.987 103.905 182.676 103.216C181.365 102.527 179.768 102.893 176.576 103.625L95.3615 122.237C91.0465 123.226 88.8889 123.72 88.0398 125.383C87.1907 127.045 88.055 129.083 89.7836 133.159L112.673 187.124C113.676 189.488 114.177 190.67 115.181 191.335C116.185 192 117.469 192 120.038 192Z" fill="#231F1C"/>
<path d="M0.796814 169.103V186C0.796814 188.828 0.796814 190.243 1.67549 191.121C2.55417 192 3.96838 192 6.79681 192H86.6021C90.6786 192 92.7169 192 93.6073 190.662C94.4977 189.324 93.7108 187.444 92.1369 183.684L74.8484 142.375C74.1011 140.589 73.7274 139.696 72.9723 139.194C72.2172 138.691 71.2494 138.691 69.3136 138.691H25.9714C24.5639 138.691 23.8602 138.691 23.2472 138.984C22.6342 139.276 22.1916 139.824 21.3065 140.918L2.57696 164.072C1.69563 165.162 1.25497 165.706 1.02589 166.354C0.796814 167.001 0.796814 167.702 0.796814 169.103Z" fill="#F46A13"/>
<path d="M98.7909 93.1999L83.9696 18.5581C83.0914 14.1352 82.6523 11.9238 83.8525 10.4619C85.0526 9 87.3072 9 91.8164 9H162.256C164.35 9 165.397 9 166.281 9.47267C167.165 9.94533 167.746 10.8162 168.909 12.5579L186.733 39.2542C187.771 40.809 188.29 41.5863 188.42 42.4793C188.55 43.3723 188.275 44.2656 187.725 46.0521L177.452 79.3903C176.79 81.5384 176.459 82.6125 175.676 83.3408C174.894 84.0692 173.799 84.3224 171.609 84.8288L108.44 99.4361C104.659 100.31 102.769 100.747 101.347 99.8282C99.9245 98.9089 99.5466 97.0059 98.7909 93.1999Z" fill="#D6E348"/>
<path d="M0.796814 84.0121V17C0.796814 13.2288 0.796814 11.3431 1.96839 10.1716C3.13996 9 5.02558 9 8.79682 9H57.8456C61.0464 9 62.6468 9 63.7611 9.9327C64.8754 10.8654 65.1572 12.4408 65.7206 15.5917L79.5723 93.0479C80.0122 95.5076 80.2321 96.7374 79.7802 97.8224C79.3284 98.9074 78.3005 99.6176 76.2448 101.038L46.3586 121.688L46.3586 121.688C43.8083 123.45 42.5331 124.331 41.1221 124.224C39.7111 124.118 38.5828 123.055 36.3261 120.929L3.31189 89.8359C2.07226 88.6683 1.45245 88.0846 1.12463 87.3255C0.796814 86.5664 0.796814 85.715 0.796814 84.0121Z" fill="#EAD0B6"/>
</svg>
